<svg data-v-fde0c5aa="" xmlns="http://www.w3.org/2000/svg" viewBox="0 0 300 300" class="iconAbove"><!----><defs data-v-fde0c5aa=""><!----></defs><rect data-v-fde0c5aa="" fill="#F3E9F1" x="0" y="0" width="300px" height="300px" class="logo-background-square"></rect><defs data-v-fde0c5aa=""><!----></defs><g data-v-fde0c5aa="" id="2beb4a0e-e3ac-4ae1-805e-6382067e623a" fill="#261624" transform="matrix(2.542196752745668,0,0,2.542196752745668,73.95653593624289,176.939011279075)"><path d="M2.93 0.63L2.93 0.63L2.93 0.63Q2.86 0.85 2.84 1.07L2.84 1.07L2.84 1.07Q2.83 1.29 2.77 1.51L2.77 1.51L2.77 1.51Q2.76 1.57 2.70 1.85L2.70 1.85L2.70 1.85Q2.65 2.13 2.57 2.52L2.57 2.52L2.57 2.52Q2.49 2.91 2.40 3.36L2.40 3.36L2.40 3.36Q2.31 3.81 2.23 4.20L2.23 4.20L2.23 4.20Q2.16 4.59 2.10 4.87L2.10 4.87L2.10 4.87Q2.04 5.15 2.04 5.21L2.04 5.21L2.04 5.21Q2.03 5.40 1.97 5.65L1.97 5.65L1.97 5.65Q1.92 5.89 1.84 6.15L1.84 6.15L1.84 6.15Q1.76 6.41 1.69 6.66L1.69 6.66L1.69 6.66Q1.61 6.92 1.57 7.13L1.57 7.13L1.57 7.13Q1.53 7.36 1.46 7.69L1.46 7.69L1.46 7.69Q1.39 8.01 1.32 8.36L1.32 8.36L1.32 8.36Q1.26 8.71 1.20 9.04L1.20 9.04L1.20 9.04Q1.15 9.37 1.12 9.60L1.12 9.60L1.12 9.60Q1.20 9.72 1.27 9.74L1.27 9.74L1.27 9.74Q1.33 9.76 1.39 9.75L1.39 9.75L1.39 9.75Q1.44 9.74 1.51 9.73L1.51 9.73L1.51 9.73Q1.58 9.72 1.68 9.73L1.68 9.73L1.68 9.73Q1.69 9.69 1.80 9.68L1.80 9.68L1.80 9.68Q1.90 9.67 2.03 9.67L2.03 9.67L2.03 9.67Q2.16 9.66 2.27 9.65L2.27 9.65L2.27 9.65Q2.38 9.65 2.39 9.60L2.39 9.60L2.39 9.60Q2.52 9.30 2.64 8.90L2.64 8.90L2.64 8.90Q2.76 8.50 2.87 8.06L2.87 8.06L2.87 8.06Q2.98 7.63 3.09 7.20L3.09 7.20L3.09 7.20Q3.19 6.78 3.30 6.40L3.30 6.40L3.30 6.40Q3.35 6.26 3.41 6.01L3.41 6.01L3.41 6.01Q3.47 5.77 3.52 5.60L3.52 5.60L3.52 5.60Q3.57 5.43 3.57 5.40L3.57 5.40L3.57 5.40Q3.64 5.31 3.87 5.26L3.87 5.26L3.87 5.26Q4.10 5.21 4.41 5.19L4.41 5.19L4.41 5.19Q4.72 5.18 5.07 5.18L5.07 5.18L5.07 5.18Q5.43 5.18 5.75 5.17L5.75 5.17L5.75 5.17Q6.06 5.17 6.30 5.15L6.30 5.15L6.30 5.15Q6.54 5.12 6.64 5.05L6.64 5.05L6.64 5.05Q6.65 4.98 6.71 4.86L6.71 4.86L6.71 4.86Q6.78 4.73 6.80 4.65L6.80 4.65L6.80 4.65Q6.82 4.55 6.85 4.49L6.85 4.49L6.85 4.49Q6.89 4.42 6.91 4.36L6.91 4.36L6.91 4.36Q6.93 4.30 6.94 4.21L6.94 4.21L6.94 4.21Q6.94 4.13 6.92 3.99L6.92 3.99L6.92 3.99Q6.76 3.92 6.59 3.91L6.59 3.91L6.59 3.91Q6.43 3.91 6.24 3.91L6.24 3.91L6.23 3.92L6.23 3.92Q5.95 3.92 5.65 3.95L5.65 3.95L5.65 3.95Q5.35 3.98 5.04 4.00L5.04 4.00L5.04 4.00Q4.73 4.03 4.44 4.04L4.44 4.04L4.44 4.04Q4.14 4.05 3.88 4.02L3.88 4.02L3.88 4.02Q3.84 4.02 3.84 3.95L3.84 3.95L3.84 3.95Q3.84 3.86 3.86 3.77L3.86 3.77L3.86 3.77Q3.88 3.68 3.90 3.60L3.90 3.60L3.90 3.60Q3.92 3.51 3.93 3.47L3.93 3.47L3.93 3.47Q3.95 3.39 4.03 3.09L4.03 3.09L4.03 3.09Q4.10 2.79 4.19 2.46L4.19 2.46L4.19 2.46Q4.28 2.13 4.37 1.86L4.37 1.86L4.37 1.86Q4.45 1.60 4.51 1.57L4.51 1.57L4.51 1.57Q5.21 1.41 5.89 1.39L5.89 1.39L5.89 1.39Q6.58 1.36 7.29 1.29L7.29 1.29L7.29 1.29Q7.49 1.27 7.71 1.27L7.71 1.27L7.71 1.27Q7.92 1.26 8.12 1.20L8.12 1.20L8.12 1.20Q8.19 0.94 8.19 0.81L8.19 0.81L8.19 0.81Q8.19 0.69 8.23 0.49L8.23 0.49L8.23 0.49Q8.26 0.38 8.23 0.33L8.23 0.33L8.23 0.33Q8.20 0.28 8.20 0.14L8.20 0.14L8.20 0.14Q8.15 0.01 7.88-0.03L7.88-0.03L7.88-0.03Q7.60-0.08 7.28-0.08L7.28-0.08L7.28-0.08Q6.97-0.08 6.71-0.06L6.71-0.06L6.71-0.06Q6.44-0.04 6.38-0.04L6.38-0.04L6.38-0.04Q6.27-0.04 6.16-0.03L6.16-0.03L6.16-0.03Q6.05-0.01 5.94-0.01L5.94-0.01L5.91 0L5.91 0Q5.25 0 4.68 0.06L4.68 0.06L4.68 0.06Q4.10 0.11 3.43 0.29L3.43 0.29L3.43 0.29Q3.37 0.31 3.33 0.33L3.33 0.33L3.33 0.33Q3.28 0.35 3.22 0.35L3.22 0.35L3.22 0.35Q3.12 0.41 3.04 0.46L3.04 0.46L3.04 0.46Q2.95 0.50 2.93 0.63ZM9.55 1.68L9.55 1.68L9.55 1.68Q9.44 1.62 9.32 1.58L9.32 1.58L9.32 1.58Q9.20 1.53 8.97 1.61L8.97 1.61L8.97 1.61Q8.58 1.76 8.39 2.05L8.39 2.05L8.39 2.05Q8.19 2.34 8.18 2.61L8.18 2.61L8.18 2.61Q8.18 2.88 8.37 3.07L8.37 3.07L8.37 3.07Q8.57 3.26 8.95 3.21L8.95 3.21L8.95 3.21Q9.21 3.16 9.43 2.98L9.43 2.98L9.43 2.98Q9.65 2.79 9.75 2.54L9.75 2.54L9.75 2.54Q9.86 2.30 9.82 2.06L9.82 2.06L9.82 2.06Q9.79 1.82 9.55 1.68ZM7.90 4.97L7.90 4.97L7.90 4.97Q7.87 5.08 7.79 5.42L7.79 5.42L7.79 5.42Q7.71 5.75 7.61 6.21L7.61 6.21L7.61 6.21Q7.50 6.66 7.39 7.18L7.39 7.18L7.39 7.18Q7.27 7.69 7.16 8.15L7.16 8.15L7.16 8.15Q7.06 8.61 6.97 8.95L6.97 8.95L6.97 8.95Q6.89 9.30 6.86 9.42L6.86 9.42L6.86 9.42Q6.92 9.42 7.11 9.44L7.11 9.44L7.11 9.44Q7.31 9.46 7.52 9.46L7.52 9.46L7.52 9.46Q7.73 9.45 7.91 9.40L7.91 9.40L7.91 9.40Q8.09 9.35 8.13 9.23L8.13 9.23L8.13 9.23Q8.18 9.10 8.27 8.73L8.27 8.73L8.27 8.73Q8.37 8.36 8.49 7.86L8.49 7.86L8.49 7.86Q8.61 7.36 8.74 6.81L8.74 6.81L8.74 6.81Q8.86 6.26 8.96 5.77L8.96 5.77L8.96 5.77Q9.06 5.28 9.12 4.91L9.12 4.91L9.12 4.91Q9.18 4.54 9.18 4.41L9.18 4.41L9.18 4.41Q9.07 4.40 8.95 4.35L8.95 4.35L8.95 4.35Q8.82 4.31 8.68 4.30L8.68 4.30L8.68 4.30Q8.60 4.27 8.38 4.30L8.38 4.30L8.38 4.30Q8.16 4.33 8.08 4.33L8.08 4.33L8.08 4.33Q8.05 4.41 7.99 4.63L7.99 4.63L7.99 4.63Q7.92 4.84 7.90 4.97ZM14.15 9.41L14.15 9.41L14.15 9.41Q14.25 9.28 14.34 9.06L14.34 9.06L14.34 9.06Q14.43 8.83 14.51 8.60L14.51 8.60L14.51 8.60Q14.59 8.36 14.65 8.13L14.65 8.13L14.65 8.13Q14.71 7.90 14.74 7.76L14.74 7.76L14.74 7.76Q14.90 7.04 15.04 6.33L15.04 6.33L15.04 6.33Q15.18 5.61 15.04 4.94L15.04 4.94L15.04 4.94Q14.91 4.27 14.53 4.03L14.53 4.03L14.53 4.03Q14.14 3.79 13.64 3.86L13.64 3.86L13.64 3.86Q13.15 3.92 12.60 4.22L12.60 4.22L12.60 4.22Q12.05 4.52 11.61 4.93L11.61 4.93L11.61 4.93Q11.70 4.47 11.66 4.03L11.66 4.03L11.66 4.03Q11.59 4.03 11.49 4.00L11.49 4.00L11.49 4.00Q11.38 3.98 11.30 4.03L11.30 4.03L11.30 4.03Q11.26 4.05 11.19 4.05L11.19 4.05L11.19 4.05Q11.12 4.05 11.03 4.05L11.03 4.05L11.03 4.05Q10.95 4.06 10.88 4.07L10.88 4.07L10.88 4.07Q10.81 4.09 10.78 4.12L10.78 4.12L10.78 4.12Q10.72 4.16 10.63 4.52L10.63 4.52L10.63 4.52Q10.53 4.89 10.40 5.43L10.40 5.43L10.40 5.43Q10.28 5.96 10.15 6.59L10.15 6.59L10.15 6.59Q10.02 7.21 9.91 7.77L9.91 7.77L9.91 7.77Q9.79 8.33 9.71 8.74L9.71 8.74L9.71 8.74Q9.63 9.16 9.60 9.27L9.60 9.27L9.60 9.27Q9.63 9.39 9.76 9.44L9.76 9.44L9.76 9.44Q9.88 9.49 10.05 9.49L10.05 9.49L10.05 9.49Q10.22 9.49 10.39 9.48L10.39 9.48L10.39 9.48Q10.56 9.46 10.67 9.46L10.67 9.46L10.67 9.46Q10.67 9.46 10.69 9.35L10.69 9.35L10.69 9.35Q10.71 9.23 10.74 9.13L10.74 9.13L10.74 9.13Q10.89 8.41 11.07 7.69L11.07 7.69L11.07 7.69Q11.24 6.96 11.56 6.24L11.56 6.24L11.56 6.24Q11.66 6.01 11.88 5.78L11.88 5.78L11.88 5.78Q12.10 5.54 12.35 5.38L12.35 5.38L12.35 5.38Q12.60 5.22 12.87 5.15L12.87 5.15L12.87 5.15Q13.13 5.08 13.35 5.16L13.35 5.16L13.35 5.16Q13.57 5.24 13.69 5.48L13.69 5.48L13.69 5.48Q13.82 5.73 13.79 6.19L13.79 6.19L13.79 6.19Q13.75 6.79 13.59 7.41L13.59 7.41L13.59 7.41Q13.45 7.91 13.32 8.41L13.32 8.41L13.32 8.41Q13.19 8.92 13.08 9.41L13.08 9.41L13.08 9.41Q13.22 9.49 13.38 9.52L13.38 9.52L13.38 9.52Q13.55 9.55 13.76 9.48L13.76 9.48L13.76 9.48Q13.86 9.45 13.96 9.44L13.96 9.44L13.96 9.44Q14.06 9.42 14.15 9.41ZM20.73 9.20L20.73 9.20L20.73 9.20Q20.92 8.69 21.06 8.15L21.06 8.15L21.06 8.15Q21.20 7.60 21.30 7.04L21.30 7.04L21.30 7.04Q21.41 6.47 21.50 5.92L21.50 5.92L21.50 5.92Q21.60 5.36 21.71 4.83L21.71 4.83L21.71 4.83Q21.76 4.61 21.85 4.23L21.85 4.23L21.85 4.23Q21.94 3.85 22.04 3.40L22.04 3.40L22.04 3.40Q22.15 2.94 22.26 2.44L22.26 2.44L22.26 2.44Q22.37 1.95 22.46 1.51L22.46 1.51L22.46 1.51Q22.55 1.08 22.61 0.74L22.61 0.74L22.61 0.74Q22.67 0.39 22.67 0.22L22.67 0.22L22.67 0.22Q22.67 0.22 22.55 0.21L22.55 0.21L22.55 0.21Q22.44 0.20 22.22 0.21L22.22 0.21L21.66 0.22L21.66 0.22Q21.64 0.38 21.61 0.51L21.61 0.51L21.61 0.51Q21.57 0.64 21.52 0.80L21.52 0.80L21.52 0.80Q21.36 1.25 21.26 1.73L21.26 1.73L21.26 1.73Q21.15 2.21 21.04 2.67L21.04 2.67L21.04 2.67Q20.96 3.00 20.92 3.33L20.92 3.33L20.92 3.33Q20.87 3.65 20.73 3.98L20.73 3.98L20.73 3.98Q20.55 3.91 20.45 3.87L20.45 3.87L20.45 3.87Q20.36 3.84 20.17 3.79L20.17 3.79L20.17 3.79Q20.09 3.77 19.95 3.77L19.95 3.77L19.95 3.77Q19.82 3.77 19.73 3.77L19.73 3.77L19.73 3.77Q19.10 3.77 18.50 4.03L18.50 4.03L18.50 4.03Q17.91 4.28 17.37 4.70L17.37 4.70L17.37 4.70Q16.94 5.05 16.61 5.49L16.61 5.49L16.61 5.49Q16.28 5.92 16.08 6.38L16.08 6.38L16.08 6.38Q15.88 6.85 15.82 7.31L15.82 7.31L15.82 7.31Q15.76 7.77 15.88 8.16L15.88 8.16L15.88 8.16Q15.99 8.55 16.28 8.86L16.28 8.86L16.28 8.86Q16.56 9.16 17.07 9.28L17.07 9.28L17.07 9.28Q17.29 9.34 17.52 9.37L17.52 9.37L17.52 9.37Q17.75 9.39 18.00 9.32L18.00 9.32L18.00 9.32Q18.06 9.31 18.17 9.29L18.17 9.29L18.17 9.29Q18.27 9.27 18.39 9.24L18.39 9.24L18.39 9.24Q18.51 9.21 18.61 9.19L18.61 9.19L18.61 9.19Q18.72 9.17 18.77 9.14L18.77 9.14L18.77 9.14Q18.93 9.09 19.04 9.04L19.04 9.04L19.04 9.04Q19.15 8.99 19.26 8.93L19.26 8.93L19.26 8.93Q19.36 8.88 19.47 8.81L19.47 8.81L19.47 8.81Q19.57 8.74 19.73 8.64L19.73 8.64L19.73 8.64Q19.70 8.92 19.66 9.09L19.66 9.09L19.66 9.09Q19.63 9.27 19.67 9.35L19.67 9.35L19.67 9.35Q19.71 9.42 19.87 9.41L19.87 9.41L19.87 9.41Q20.02 9.39 20.37 9.31L20.37 9.31L20.37 9.31Q20.44 9.28 20.55 9.26L20.55 9.26L20.55 9.26Q20.65 9.24 20.73 9.20ZM20.41 5.07L20.41 5.07L20.41 5.07Q20.43 5.29 20.38 5.61L20.38 5.61L20.38 5.61Q20.33 5.94 20.24 6.28L20.24 6.28L20.24 6.28Q20.16 6.62 20.07 6.93L20.07 6.93L20.07 6.93Q19.98 7.24 19.89 7.42L19.89 7.42L19.89 7.42Q19.80 7.63 19.49 7.77L19.49 7.77L19.49 7.77Q19.18 7.91 18.82 7.98L18.82 7.98L18.82 7.98Q18.47 8.05 18.14 8.06L18.14 8.06L18.14 8.06Q17.82 8.08 17.70 8.05L17.70 8.05L17.70 8.05Q17.32 7.98 17.15 7.64L17.15 7.64L17.15 7.64Q16.98 7.29 17.14 6.80L17.14 6.80L17.14 6.80Q17.25 6.40 17.51 6.06L17.51 6.06L17.51 6.06Q17.78 5.71 18.13 5.46L18.13 5.46L18.13 5.46Q18.48 5.21 18.89 5.07L18.89 5.07L18.89 5.07Q19.29 4.93 19.68 4.90L19.68 4.90L19.68 4.90Q19.89 4.89 20.08 4.91L20.08 4.91L20.08 4.91Q20.26 4.94 20.41 5.07ZM26.74 0.62L26.74 0.62L26.74 0.62Q26.73 0.46 26.71 0.34L26.71 0.34L26.71 0.34Q26.68 0.21 26.61 0.14L26.61 0.14L26.61 0.14Q26.57 0.13 26.40 0.11L26.40 0.11L26.40 0.11Q26.24 0.08 26.04 0.08L26.04 0.08L26.04 0.08Q25.84 0.07 25.65 0.09L25.65 0.09L25.65 0.09Q25.45 0.11 25.33 0.18L25.33 0.18L25.33 0.18Q25.20 0.41 25.04 0.83L25.04 0.83L25.04 0.83Q24.88 1.26 24.70 1.81L24.70 1.81L24.70 1.81Q24.51 2.35 24.33 2.97L24.33 2.97L24.33 2.97Q24.14 3.58 23.97 4.18L23.97 4.18L23.97 4.18Q23.80 4.77 23.65 5.31L23.65 5.31L23.65 5.31Q23.51 5.84 23.41 6.20L23.41 6.20L23.41 6.20Q23.18 7.06 22.95 7.90L22.95 7.90L22.95 7.90Q22.71 8.74 22.55 9.59L22.55 9.59L22.55 9.59Q22.72 9.66 22.86 9.65L22.86 9.65L22.86 9.65Q23.00 9.65 23.20 9.65L23.20 9.65L23.20 9.65Q23.25 9.65 23.31 9.66L23.31 9.66L23.53 9.69L23.53 9.69Q23.66 9.70 23.78 9.72L23.78 9.72L23.78 9.72Q23.90 9.73 23.97 9.73L23.97 9.73L23.97 9.73Q24.00 9.66 24.02 9.58L24.02 9.58L24.02 9.58Q24.04 9.49 24.07 9.41L24.07 9.41L24.07 9.41Q24.09 9.31 24.12 9.21L24.12 9.21L24.12 9.21Q24.15 9.10 24.18 8.99L24.18 8.99L24.18 8.99Q24.22 8.79 24.26 8.60L24.26 8.60L24.26 8.60Q24.29 8.41 24.35 8.22L24.35 8.22L24.35 8.22Q24.46 7.73 24.61 7.25L24.61 7.25L24.61 7.25Q24.77 6.78 24.88 6.30L24.88 6.30L24.88 6.30Q24.91 6.16 25.00 5.82L25.00 5.82L25.00 5.82Q25.09 5.49 25.21 5.04L25.21 5.04L25.21 5.04Q25.34 4.59 25.48 4.09L25.48 4.09L25.48 4.09Q25.62 3.58 25.75 3.12L25.75 3.12L25.75 3.12Q25.82 3.70 25.90 4.33L25.90 4.33L25.90 4.33Q25.98 4.96 26.05 5.54L26.05 5.54L26.05 5.54Q26.14 6.15 26.22 6.64L26.22 6.64L26.22 6.64Q26.29 7.13 26.36 7.34L26.36 7.34L26.36 7.34Q26.39 7.45 26.43 7.65L26.43 7.65L26.43 7.65Q26.46 7.85 26.52 8.09L26.52 8.09L26.52 8.09Q26.57 8.32 26.63 8.51L26.63 8.51L26.63 8.51Q26.68 8.71 26.75 8.81L26.75 8.81L26.75 8.81Q26.77 8.83 26.92 8.81L26.92 8.81L26.92 8.81Q27.08 8.79 27.27 8.76L27.27 8.76L27.27 8.76Q27.38 8.74 27.48 8.73L27.48 8.73L27.48 8.73Q27.58 8.72 27.66 8.71L27.66 8.71L27.66 8.71Q27.73 8.68 27.79 8.68L27.79 8.68L27.79 8.68Q27.85 8.68 27.87 8.67L27.87 8.67L27.87 8.67Q27.93 8.62 28.06 8.43L28.06 8.43L28.06 8.43Q28.18 8.23 28.34 7.99L28.34 7.99L28.34 7.99Q28.49 7.74 28.63 7.53L28.63 7.53L28.63 7.53Q28.77 7.31 28.80 7.27L28.80 7.27L28.80 7.27Q29.43 6.29 30.00 5.42L30.00 5.42L30.00 5.42Q30.56 4.55 31.11 3.56L31.11 3.56L31.11 3.56Q31.14 3.53 31.14 3.50L31.14 3.50L31.14 3.50Q31.15 3.47 31.18 3.43L31.18 3.43L31.18 3.43Q31.19 3.35 31.25 3.25L31.25 3.25L31.25 3.25Q31.29 3.14 31.34 3.03L31.34 3.03L31.34 3.03Q31.39 2.93 31.49 2.79L31.49 2.79L31.49 2.79Q31.43 3.15 31.35 3.58L31.35 3.58L31.35 3.58Q31.26 4.02 31.22 4.27L31.22 4.27L31.22 4.27Q31.21 4.38 31.20 4.51L31.20 4.51L31.20 4.51Q31.19 4.63 31.15 4.76L31.15 4.76L31.15 4.76Q31.15 4.87 31.09 5.24L31.09 5.24L31.09 5.24Q31.04 5.61 30.98 6.03L30.98 6.03L30.98 6.03Q30.91 6.47 30.86 6.84L30.86 6.84L30.86 6.84Q30.80 7.21 30.79 7.31L30.79 7.31L30.79 7.31Q30.76 7.63 30.71 7.95L30.71 7.95L30.71 7.95Q30.66 8.26 30.62 8.58L30.62 8.58L30.62 8.58Q30.58 8.90 30.57 9.22L30.57 9.22L30.57 9.22Q30.56 9.53 30.62 9.83L30.62 9.83L30.62 9.83Q30.79 9.86 30.95 9.86L30.95 9.86L30.95 9.86Q31.14 9.86 31.46 9.80L31.46 9.80L31.46 9.80Q31.57 9.77 31.68 9.74L31.68 9.74L31.68 9.74Q31.78 9.72 31.88 9.67L31.88 9.67L31.88 9.67Q31.95 9.42 31.96 9.17L31.96 9.17L31.96 9.17Q31.96 8.92 31.99 8.68L31.99 8.68L31.99 8.68Q32.02 8.34 32.05 8.11L32.05 8.11L32.05 8.11Q32.09 7.87 32.13 7.53L32.13 7.53L32.13 7.53Q32.26 6.57 32.37 5.59L32.37 5.59L32.37 5.59Q32.48 4.62 32.65 3.67L32.65 3.67L32.65 3.67Q32.66 3.58 32.70 3.40L32.70 3.40L32.70 3.40Q32.73 3.21 32.77 3.01L32.77 3.01L32.77 3.01Q32.80 2.81 32.84 2.63L32.84 2.63L32.84 2.63Q32.87 2.45 32.89 2.37L32.89 2.37L32.89 2.37Q32.94 2.07 32.98 1.87L32.98 1.87L32.98 1.87Q33.03 1.67 33.08 1.49L33.08 1.49L33.08 1.49Q33.12 1.32 33.18 1.12L33.18 1.12L33.18 1.12Q33.24 0.92 33.31 0.63L33.31 0.63L33.31 0.63Q33.31 0.57 33.32 0.51L33.32 0.51L33.32 0.51Q33.33 0.45 33.35 0.39L33.35 0.39L33.35 0.39Q33.42 0.25 33.33 0.21L33.33 0.21L33.33 0.21Q33.32 0.08 33.16-0.01L33.16-0.01L33.16-0.01Q33.00-0.11 32.79-0.17L32.79-0.17L32.79-0.17Q32.58-0.22 32.36-0.22L32.36-0.22L32.36-0.22Q32.14-0.21 32.00-0.13L32.00-0.13L32.00-0.13Q31.79 0.15 31.68 0.36L31.68 0.36L31.68 0.36Q31.57 0.57 31.37 0.85L31.37 0.85L31.37 0.85Q30.72 1.89 30.03 2.91L30.03 2.91L30.03 2.91Q29.53 3.70 29.04 4.48L29.04 4.48L29.04 4.48Q28.56 5.26 28.07 6.06L28.07 6.06L28.07 6.06Q28.04 6.10 27.94 6.27L27.94 6.27L27.94 6.27Q27.85 6.43 27.78 6.56L27.78 6.56L27.78 6.56Q27.71 6.69 27.69 6.71L27.69 6.71L27.69 6.71Q27.69 6.69 27.68 6.57L27.68 6.57L27.68 6.57Q27.66 6.45 27.64 6.30L27.64 6.30L27.64 6.30Q27.62 6.15 27.61 6.09L27.61 6.09L27.61 6.09Q27.47 5.47 27.36 4.87L27.36 4.87L27.36 4.87Q27.24 4.26 27.13 3.63L27.13 3.63L27.13 3.63Q27.01 2.98 26.94 2.46L26.94 2.46L26.94 2.46Q26.88 1.95 26.78 1.29L26.78 1.29L26.78 1.29Q26.75 1.13 26.75 0.95L26.75 0.95L26.75 0.95Q26.75 0.77 26.74 0.62ZM34.47 9.07L34.47 9.07L34.47 9.07Q34.40 9.20 34.27 9.41L34.27 9.41L34.27 9.41Q34.13 9.62 33.98 9.84L33.98 9.84L33.98 9.84Q33.82 10.07 33.68 10.27L33.68 10.27L33.68 10.27Q33.53 10.47 33.43 10.57L33.43 10.57L33.43 10.57Q33.08 10.95 32.77 11.33L32.77 11.33L32.77 11.33Q32.45 11.72 32.05 12.03L32.05 12.03L32.10 12.38L32.10 12.38Q32.26 12.56 32.38 12.71L32.38 12.71L32.38 12.71Q32.49 12.85 32.77 12.85L32.77 12.85L32.77 12.85Q32.93 12.77 33.15 12.53L33.15 12.53L33.15 12.53Q33.38 12.29 33.61 12.01L33.61 12.01L33.61 12.01Q33.84 11.72 34.04 11.45L34.04 11.45L34.04 11.45Q34.24 11.17 34.37 11.02L34.37 11.02L34.37 11.02Q35.29 9.90 36.05 8.67L36.05 8.67L36.05 8.67Q36.81 7.45 37.58 6.24L37.58 6.24L37.58 6.24Q37.97 5.63 38.38 5.05L38.38 5.05L38.38 5.05Q38.79 4.47 39.12 3.84L39.12 3.84L39.12 3.84Q39.12 3.67 38.98 3.60L38.98 3.60L38.98 3.60Q38.85 3.53 38.67 3.51L38.67 3.51L38.67 3.51Q38.49 3.50 38.29 3.54L38.29 3.54L38.29 3.54Q38.09 3.57 37.97 3.63L37.97 3.63L37.97 3.63Q37.30 4.66 36.69 5.72L36.69 5.72L36.69 5.72Q36.08 6.78 35.38 7.81L35.38 7.81L35.38 7.81Q35.13 7.18 34.98 6.36L34.98 6.36L34.98 6.36Q34.83 5.53 34.80 4.82L34.80 4.82L34.80 4.82Q34.80 4.76 34.80 4.61L34.80 4.61L34.80 4.61Q34.79 4.45 34.79 4.28L34.79 4.28L34.79 4.28Q34.79 4.10 34.78 3.96L34.78 3.96L34.78 3.96Q34.76 3.82 34.73 3.81L34.73 3.81L34.73 3.81Q34.71 3.78 34.55 3.82L34.55 3.82L34.55 3.82Q34.38 3.85 34.18 3.90L34.18 3.90L34.18 3.90Q33.98 3.95 33.78 4.00L33.78 4.00L33.78 4.00Q33.59 4.05 33.52 4.05L33.52 4.05L33.52 4.05Q33.49 4.35 33.56 4.98L33.56 4.98L33.56 4.98Q33.64 5.60 33.77 6.28L33.77 6.28L33.77 6.28Q33.89 6.96 34.04 7.57L34.04 7.57L34.04 7.57Q34.19 8.19 34.30 8.47L34.30 8.47L34.30 8.47Q34.36 8.61 34.41 8.76L34.41 8.76L34.41 8.76Q34.45 8.92 34.47 9.07ZM46.70 2.72L46.70 2.72L46.70 2.72Q46.98 2.58 47.26 2.25L47.26 2.25L47.26 2.25Q47.54 1.93 47.82 1.74L47.82 1.74L47.82 1.74Q47.92 1.27 47.75 0.86L47.75 0.86L47.75 0.86Q47.57 0.45 47.26 0.17L47.26 0.17L47.26 0.17Q47.05-0.01 46.84-0.09L46.84-0.09L46.84-0.09Q46.63-0.17 46.38-0.25L46.38-0.25L46.38-0.25Q45.92-0.41 45.50-0.42L45.50-0.42L45.50-0.42Q45.08-0.43 44.66-0.34L44.66-0.34L44.66-0.34Q44.24-0.25 43.81-0.06L43.81-0.06L43.81-0.06Q43.37 0.14 42.90 0.41L42.90 0.41L42.90 0.41Q42.22 0.78 41.62 1.40L41.62 1.40L41.62 1.40Q41.01 2.02 40.53 2.75L40.53 2.75L40.53 2.75Q40.05 3.49 39.73 4.26L39.73 4.26L39.73 4.26Q39.41 5.04 39.31 5.73L39.31 5.73L39.31 5.73Q39.28 5.88 39.28 6.08L39.28 6.08L39.28 6.08Q39.27 6.29 39.28 6.41L39.28 6.41L39.28 6.41Q39.23 6.52 39.23 6.72L39.23 6.72L39.23 6.72Q39.23 6.90 39.26 7.11L39.26 7.11L39.26 7.11Q39.28 7.32 39.33 7.51L39.33 7.51L39.33 7.51Q39.38 7.70 39.42 7.81L39.42 7.81L39.42 7.81Q39.49 8.05 39.56 8.25L39.56 8.25L39.56 8.25Q39.63 8.44 39.79 8.64L39.79 8.64L39.79 8.64Q40.22 9.23 40.85 9.50L40.85 9.50L40.85 9.50Q41.48 9.77 42.22 9.78L42.22 9.78L42.22 9.78Q42.95 9.79 43.73 9.56L43.73 9.56L43.73 9.56Q44.51 9.32 45.22 8.88L45.22 8.88L45.22 8.88Q45.57 8.65 45.98 8.30L45.98 8.30L45.98 8.30Q46.40 7.95 46.59 7.59L46.59 7.59L46.59 7.59Q46.75 7.46 46.79 7.35L46.79 7.35L46.79 7.35Q46.83 7.24 46.87 7.07L46.87 7.07L46.87 7.07Q46.72 6.93 46.55 6.72L46.55 6.72L46.55 6.72Q46.38 6.51 46.14 6.48L46.14 6.48L46.14 6.48Q46.05 6.64 45.82 6.85L45.82 6.85L45.82 6.85Q45.60 7.06 45.34 7.26L45.34 7.26L45.34 7.26Q45.08 7.46 44.82 7.64L44.82 7.64L44.82 7.64Q44.56 7.81 44.39 7.90L44.39 7.90L44.39 7.90Q44.06 8.09 43.69 8.20L43.69 8.20L43.69 8.20Q43.33 8.32 42.97 8.36L42.97 8.36L42.97 8.36Q42.60 8.40 42.25 8.35L42.25 8.35L42.25 8.35Q41.90 8.30 41.61 8.15L41.61 8.15L41.61 8.15Q41.10 7.90 40.92 7.42L40.92 7.42L40.92 7.42Q40.73 6.94 40.75 6.36L40.75 6.36L40.75 6.36Q40.77 5.78 40.96 5.18L40.96 5.18L40.96 5.18Q41.15 4.58 41.41 4.09L41.41 4.09L41.41 4.09Q41.62 3.72 41.87 3.39L41.87 3.39L41.87 3.39Q42.13 3.05 42.39 2.72L42.39 2.72L42.39 2.72Q42.98 2.00 43.69 1.59L43.69 1.59L43.69 1.59Q44.41 1.18 45.25 1.32L45.25 1.32L45.25 1.32Q45.86 1.41 46.20 1.79L46.20 1.79L46.20 1.79Q46.54 2.16 46.70 2.72ZM52.72 4.28L52.72 4.28L52.72 4.28Q52.44 3.68 51.88 3.50L51.88 3.50L51.88 3.50Q51.31 3.32 50.67 3.47L50.67 3.47L50.67 3.47Q50.02 3.63 49.40 4.07L49.40 4.07L49.40 4.07Q48.78 4.52 48.38 5.18L48.38 5.18L48.38 5.18Q48.40 5.18 48.46 5.25L48.46 5.25L48.46 5.25Q48.52 5.32 48.60 5.40L48.60 5.40L48.60 5.40Q48.68 5.47 48.74 5.54L48.74 5.54L48.74 5.54Q48.80 5.60 48.83 5.60L48.83 5.60L48.83 5.60Q49.06 5.39 49.28 5.19L49.28 5.19L49.28 5.19Q49.50 4.98 49.77 4.83L49.77 4.83L49.77 4.83Q50.01 4.69 50.32 4.61L50.32 4.61L50.32 4.61Q50.62 4.52 50.90 4.53L50.90 4.53L50.90 4.53Q51.18 4.54 51.39 4.67L51.39 4.67L51.39 4.67Q51.59 4.80 51.62 5.11L51.62 5.11L51.62 5.11Q51.63 5.33 51.58 5.57L51.58 5.57L51.58 5.57Q51.52 5.81 51.49 6.03L51.49 6.03L51.49 6.03Q51.16 6.09 50.81 6.09L50.81 6.09L50.81 6.09Q50.47 6.09 50.13 6.15L50.13 6.15L50.13 6.15Q49.80 6.20 49.39 6.34L49.39 6.34L49.39 6.34Q48.99 6.47 48.61 6.68L48.61 6.68L48.61 6.68Q48.23 6.89 47.95 7.18L47.95 7.18L47.95 7.18Q47.67 7.48 47.59 7.85L47.59 7.85L47.54 8.05L47.54 8.05Q47.57 8.05 47.53 8.09L47.53 8.09L47.53 8.09Q47.42 8.71 47.78 9.09L47.78 9.09L47.78 9.09Q48.08 9.41 48.49 9.49L48.49 9.49L48.49 9.49Q48.90 9.58 49.35 9.58L49.35 9.58L49.35 9.58Q49.35 9.56 49.38 9.56L49.38 9.56L49.38 9.56Q49.57 9.56 49.78 9.52L49.78 9.52L49.78 9.52Q49.98 9.48 50.18 9.44L50.18 9.44L50.18 9.44Q50.34 9.39 50.44 9.37L50.44 9.37L50.44 9.37Q50.54 9.34 50.62 9.31L50.62 9.31L50.62 9.31Q50.69 9.28 50.76 9.26L50.76 9.26L50.76 9.26Q50.82 9.24 50.90 9.21L50.90 9.21L50.90 9.21Q50.89 9.38 51.00 9.46L51.00 9.46L51.00 9.46Q51.10 9.53 51.14 9.69L51.14 9.69L51.14 9.69Q51.34 9.69 51.53 9.65L51.53 9.65L51.53 9.65Q51.73 9.62 51.93 9.60L51.93 9.60L51.93 9.60Q51.95 9.41 52.05 9.03L52.05 9.03L52.05 9.03Q52.15 8.65 52.22 8.36L52.22 8.36L52.25 8.34L52.25 8.34Q52.35 7.92 52.50 7.37L52.50 7.37L52.50 7.37Q52.65 6.82 52.76 6.25L52.76 6.25L52.76 6.25Q52.86 5.68 52.88 5.17L52.88 5.17L52.88 5.17Q52.89 4.65 52.72 4.28ZM51.37 6.99L51.37 6.99L51.37 6.99Q51.32 7.22 51.25 7.52L51.25 7.52L51.25 7.52Q51.18 7.81 51.10 8.05L51.10 8.05L51.10 8.05Q51.06 8.16 50.71 8.26L50.71 8.26L50.71 8.26Q50.36 8.36 49.95 8.39L49.95 8.39L49.95 8.39Q49.53 8.41 49.18 8.35L49.18 8.35L49.18 8.35Q48.83 8.29 48.80 8.09L48.80 8.09L48.80 8.09Q48.80 8.02 48.81 7.97L48.81 7.97L48.81 7.97Q48.82 7.92 48.83 7.85L48.83 7.85L48.83 7.85Q48.90 7.66 49.13 7.49L49.13 7.49L49.13 7.49Q49.36 7.32 49.55 7.25L49.55 7.25L49.55 7.25Q49.59 7.22 49.63 7.22L49.63 7.22L49.63 7.22Q49.67 7.21 49.70 7.20L49.70 7.20L49.70 7.20Q50.09 7.07 50.37 7.00L50.37 7.00L50.37 7.00Q50.65 6.93 51.03 6.93L51.03 6.93L51.03 6.93Q51.10 6.96 51.21 6.95L51.21 6.95L51.21 6.95Q51.32 6.94 51.37 6.99ZM58.41 4.68L58.41 4.68L58.41 4.68Q58.45 4.62 58.51 4.49L58.51 4.49L58.51 4.49Q58.58 4.35 58.63 4.21L58.63 4.21L58.63 4.21Q58.67 4.06 58.70 3.93L58.70 3.93L58.70 3.93Q58.72 3.79 58.66 3.74L58.66 3.74L58.66 3.74Q58.07 3.64 57.63 3.72L57.63 3.72L57.63 3.72Q57.19 3.81 56.85 3.98L56.85 3.98L56.85 3.98Q56.50 4.16 56.24 4.38L56.24 4.38L56.24 4.38Q55.97 4.61 55.75 4.79L55.75 4.79L55.73 4.79L55.73 4.79Q55.76 4.61 55.80 4.41L55.80 4.41L55.80 4.41Q55.83 4.21 55.83 4.03L55.83 4.03L55.83 4.03Q55.76 3.79 55.65 3.69L55.65 3.69L55.65 3.69Q55.54 3.58 55.38 3.54L55.38 3.54L55.38 3.54Q55.27 3.51 55.08 3.54L55.08 3.54L55.08 3.54Q54.89 3.57 54.77 3.57L54.77 3.57L54.77 3.57Q54.73 3.74 54.68 3.90L54.68 3.90L54.68 3.90Q54.63 4.06 54.59 4.21L54.59 4.21L54.59 4.21Q54.31 5.57 54.00 6.91L54.00 6.91L54.00 6.91Q53.69 8.25 53.41 9.60L53.41 9.60L53.41 9.60Q53.49 9.62 53.68 9.63L53.68 9.63L53.68 9.63Q53.87 9.65 54.08 9.64L54.08 9.64L54.08 9.64Q54.28 9.63 54.45 9.58L54.45 9.58L54.45 9.58Q54.61 9.53 54.67 9.41L54.67 9.41L54.67 9.41Q54.75 9.20 54.85 8.83L54.85 8.83L54.85 8.83Q54.95 8.46 55.03 8.04L55.03 8.04L55.03 8.04Q55.12 7.63 55.20 7.24L55.20 7.24L55.20 7.24Q55.27 6.85 55.33 6.61L55.33 6.61L55.33 6.61Q55.51 6.34 55.77 6.04L55.77 6.04L55.77 6.04Q56.03 5.74 56.34 5.47L56.34 5.47L56.34 5.47Q56.66 5.19 57.02 4.98L57.02 4.98L57.02 4.98Q57.39 4.77 57.79 4.68L57.79 4.68L57.79 4.68Q57.82 4.66 57.90 4.66L57.90 4.66L57.90 4.66Q57.99 4.66 58.00 4.68L58.00 4.68L58.00 4.68Q58.10 4.68 58.20 4.68L58.20 4.68L58.20 4.68Q58.30 4.69 58.41 4.68Z"></path></g><defs data-v-fde0c5aa=""><linearGradient data-v-fde0c5aa="" gradientTransform="rotate(25)" id="26e30bc1-419c-4efb-881b-ac2af3591d6a" x1="0%" y1="0%" x2="100%" y2="0%"><stop data-v-fde0c5aa="" offset="0%" stop-color="#E98C00" stop-opacity="1"></stop><stop data-v-fde0c5aa="" offset="100%" stop-color="#8F5BFE" stop-opacity="1"></stop></linearGradient></defs><g data-v-fde0c5aa="" id="ba3e04c3-9f55-42d1-9788-df19364cdd31" stroke="none" fill="url(#26e30bc1-419c-4efb-881b-ac2af3591d6a)" transform="matrix(2.6446820763986394,0,0,2.6446820763986394,18.0482321007938,-19.134539285364212)"><path d="M71.9 59.185a7.743 7.743 0 1 1 15.486 0 7.743 7.743 0 0 1-15.486 0zm2.844 0a4.898 4.898 0 1 0 9.798-.002 4.898 4.898 0 0 0-9.798.002zm9.668 0a4.769 4.769 0 0 1-9.496.648c.41 2.174 2.361 3.818 4.707 3.818 2.575 0 4.674-1.981 4.784-4.466h.005zm-.848-1.846a4.334 4.334 0 1 1-7.877.071 4.23 4.23 0 0 1 7.877-.071zm-3.921-2.38a4.225 4.225 0 1 0 .002 8.45 4.225 4.225 0 0 0-.002-8.45zm-2.266 4.524l.95.152a1.35 1.35 0 0 0 1.527.91l.576.763c.044.075.123.109.181.076l.322-.18c.06-.033.072-.117.033-.192l-.344-.896a1.354 1.354 0 0 0 .023-1.78l.373-.881c.045-.073.032-.159-.024-.194l-.315-.188c-.058-.034-.142-.004-.184.068l-.605.744a1.357 1.357 0 0 0-1.553.871l-.95.117c-.085-.001-.154.051-.154.117l-.007.37c0 .067.066.122.151.123zm4.727-.209a2.478 2.478 0 0 1-.42 1.295l.821.557c.36-.532.569-1.159.593-1.815l-.994-.037zm-3.066-3.092l.333.71c.045.108.07.156.154.156h.233c.085 0 .109-.048.154-.156l.331-.71a.152.152 0 0 0-.155-.153h-.895a.153.153 0 0 0-.155.153zm-2.436 2.647l.622-.075a.374.374 0 0 1 .153-.037l.155-.019c.021-.014.032-.034.042-.064l.072-.221c.027-.081-.012-.119-.099-.195l-.574-.535a.156.156 0 0 0-.196.1l-.275.852a.151.151 0 0 0 .1.194zm1.764 3.138l.148-.769c.027-.114.036-.167-.034-.218l-.188-.137c-.068-.051-.115-.025-.217.035l-.686.38a.157.157 0 0 0 .034.217l.725.526a.154.154 0 0 0 .218-.034zm3.53-.708l-.687-.38c-.066-.039-.108-.063-.151-.062l.051.132c.104.208-.069.426-.285.529l.097.488a.154.154 0 0 0 .217.035l.724-.526a.157.157 0 0 0 .034-.216zm.416-3.576l-.574.535c-.089.076-.126.114-.1.195l.073.221c.024.082.08.091.195.101l.778.095a.154.154 0 0 0 .1-.195l-.277-.851a.153.153 0 0 0-.195-.101zm-1.827-.81l.068.027c.083-.021.192.006.349.088.223.107.312.205.32.312.135.112.256.237.363.374l.783-.61a3.45 3.45 0 0 0-1.545-1.123l-.338.932zm-2.786.8a2.498 2.498 0 0 1 1.104-.8l-.338-.934a3.477 3.477 0 0 0-1.548 1.121l.782.613zm-.099 2.894a2.458 2.458 0 0 1-.387-.973.262.262 0 0 1-.142-.236l-.001-.082-.884.031c.023.64.223 1.272.59 1.816l.824-.556zm2.721.991a2.453 2.453 0 0 1-1.359-.002l-.276.955a3.454 3.454 0 0 0 1.91.002l-.275-.955zm-4.353-2.373c0-.358.052-.703.146-1.031l.206.036c.108.021.159.029.167.004l.022-.069c.008-.025-.037-.047-.138-.095l-.188-.091a3.678 3.678 0 0 1 3.346-2.426l.032.204c.013.111.021.16.048.16h.072c.026 0 .032-.049.048-.16l.03-.204a3.675 3.675 0 0 1 3.342 2.432l-.187.09c-.103.048-.146.071-.139.097l.023.069c.008.026.059.018.167-.004l.203-.035a3.665 3.665 0 0 1-1.281 3.927l-.144-.147c-.076-.082-.111-.116-.134-.102l-.058.043c-.022.016.001.061.055.159l.097.183a3.67 3.67 0 0 1-2.063.633 3.658 3.658 0 0 1-2.069-.636l.098-.184c.054-.099.076-.144.054-.158l-.058-.043c-.021-.017-.058.019-.135.101l-.144.146a3.666 3.666 0 0 1-1.418-2.899zm3.29-.708a.814.814 0 1 1 .764 1.438.814.814 0 0 1-.764-1.438zm-66.405.708a7.743 7.743 0 1 1 15.484 0 7.743 7.743 0 0 1-15.484 0zm2.954 0a4.896 4.896 0 0 0 4.898 4.897 4.898 4.898 0 1 0-4.898-4.897zm9.668 0a4.769 4.769 0 0 1-9.495.648c.41 2.174 2.362 3.818 4.708 3.818 2.574 0 4.673-1.981 4.782-4.466h.005zm-8.724-1.776a4.23 4.23 0 0 1 7.875-.071 4.334 4.334 0 1 1-7.875.071zm3.954-2.45a4.225 4.225 0 0 0 0 8.45c2.333 0 4.223-1.891 4.223-4.224s-1.889-4.226-4.223-4.226zm-3.673 4.226c0-.358.051-.703.146-1.031l.205.036c.11.021.16.029.168.004l.022-.069c.008-.025-.036-.047-.137-.095l-.186-.091a3.675 3.675 0 0 1 3.346-2.426l.03.204c.014.111.022.16.047.16h.074c.026 0 .033-.049.048-.16l.03-.204a3.673 3.673 0 0 1 3.341 2.432l-.187.09c-.101.048-.146.071-.137.097l.022.069c.008.026.058.018.167-.004l.206-.035a3.667 3.667 0 0 1-1.282 3.927l-.144-.147c-.076-.082-.111-.116-.133-.102l-.059.043c-.022.016.001.061.055.159l.097.183a3.665 3.665 0 0 1-2.064.633 3.655 3.655 0 0 1-2.068-.636l.097-.184c.053-.099.076-.144.054-.158l-.058-.043c-.023-.017-.058.019-.134.101l-.143.146a3.653 3.653 0 0 1-1.423-2.899zm4.353 2.373a2.46 2.46 0 0 1-1.361-.002l-.275.955c.618.178 1.28.183 1.911.002l-.275-.955zm-2.721-.991a2.447 2.447 0 0 1-.42-1.295l-.992.035a3.46 3.46 0 0 0 .587 1.816l.825-.556zm.1-2.894c.102-.13.215-.248.337-.354.015-.106.097-.206.278-.303.184-.106.303-.138.396-.108l.092-.035-.338-.934a3.48 3.48 0 0 0-1.549 1.121l.784.613zm2.785-.8c.438.161.819.441 1.1.802l.784-.61c-.396-.506-.93-.9-1.545-1.123l-.339.931zm1.826.81l-.573.535c-.089.076-.126.114-.101.195l.073.221c.008.028.02.047.036.061l.135.017a.286.286 0 0 1 .135.037l.667.081a.156.156 0 0 0 .101-.195l-.277-.851a.155.155 0 0 0-.196-.101zm-.417 3.576l-.686-.38c-.101-.061-.147-.086-.217-.035l-.188.137c-.07.051-.062.105-.035.218l.149.769a.154.154 0 0 0 .217.035l.725-.526a.156.156 0 0 0 .035-.218zm-3.529.708l.098-.499c-.204-.103-.441-.235-.303-.51l.053-.141a.328.328 0 0 0-.137.062l-.685.38a.155.155 0 0 0 .033.217l.725.526a.153.153 0 0 0 .216-.035zm-1.765-3.138l.778-.095c.117-.01.17-.019.197-.101l.071-.221c.026-.081-.013-.119-.1-.195l-.574-.535a.157.157 0 0 0-.196.1l-.276.852a.153.153 0 0 0 .1.195zm2.438-2.647l.333.71c.046.108.068.156.155.156h.232c.084 0 .109-.048.154-.156l.332-.71a.153.153 0 0 0-.155-.153h-.895a.154.154 0 0 0-.156.153zm3.041 3.372a2.5 2.5 0 0 1-.396 1.016l.823.557a3.452 3.452 0 0 0 .591-1.815l-.89-.032a.484.484 0 0 1-.128.274zm-3.244 1.764l.58-.768c.309.054.637 0 .927-.174.294-.176.497-.445.592-.748l.947-.151c.084 0 .151-.057.15-.124l-.006-.369c-.002-.065-.072-.119-.155-.117l-.954-.118a1.355 1.355 0 0 0-1.559-.857l-.604-.742c-.044-.073-.125-.104-.182-.069l-.316.19c-.059.035-.069.12-.026.193l.374.886a1.353 1.353 0 0 0 .038 1.776l-.342.896c-.041.074-.027.159.032.193l.324.179c.059.033.138-.002.18-.076zm-.007-2.133a.813.813 0 1 1 0 0zm-17.837-.578c-.581-.6-.991-1.21-1.187-1.784l.085.01c.378.038.747.059 1.081.114a4.43 4.43 0 0 0 .612 1.491c.285.023.647.039 1.111.043a.874.874 0 0 1 .031.1s.04.11-.068.11c-.8-.003-1.314-.037-1.665-.084zm93.72-8.853c.533-.024 1.053-.034 1.374-.009.952.072 1.521.074 1.757.366a.594.594 0 0 0-.23.002c-.385.061-.684.16-1.089.064l-1.812-.423zM55.47 62.807c.509-.009 3.531.093 4.891.187.535.038 1.172.262 1.172.262s.35.14.691-.327c.78-1.074 1.017-1.462 1.426-2.333.305-.647.391-.885.019-.938-.371-.051-.294-.024-.294-.024l-2.1 2.871-5.805.302zm15.271-3.54l-.131 4.315h-8.83l-.767-.247h-2.715s-27.646.247-27.974.247c-.329 0-.442-.165-.442-.165v-3.664c4.883-.056 36.783-.437 40.859-.486zm-7.041-8.95c-.071.192-.166.429-.29.719-.527 1.247-1.794 4.207-4.31 8.214l-22.375.269c-.017-.822-.131-7.421.502-9.089l.009-.021c8.527.464 26.203-.085 26.203-.085l.261-.007zm5.571 8.812l-9.985.119c2.486-3.973 3.742-6.91 4.27-8.15.135-.318.237-.578.315-.792.129-.024.627-.114 2.556-.409a78.007 78.007 0 0 1 1.443-.209c.046 2.692.65 6.167 1.401 9.441zM67.882 48.59l-.006.22c-.433.083-.838.164-1.217.241a26 26 0 0 1-2.552.397l.003-.019c.006-.014.057-.102.13-.239a74.045 74.045 0 0 0 3.642-.6zm-29.08.643a2.063 2.063 0 0 0-1.013.294c-5.023-.298-11.149-.681-14.838-.631-5.483.072-9.975 1.743-12.639 2.91-2.667 1.166-3.596 1.79-2.652 1.536a17.835 17.835 0 0 0 2.745-.967c1.164-.517 3.069-1.459 6.426-2.015 8.11-1.341 11.407-.561 19.531-.006.229.017.465.031.71.045-.34.93-.463 3.224-.504 5.274-.036 1.814-.007 3.458.001 3.846l-6.688.078c-.615-4.592-4.04-8.358-9.238-8.386-5.633-.029-8.474 3.274-8.484 7.672-.057 1.475-.171 2.602-.574 3.575-.116.274-.253.227-.253.227-3.343-.26-6.555-1.729-8.549-3.402.288.021.606.032.941.029 1.35-.01.523-1.435-.135-2.243-.66-.809-1.813-.769-2.498-.866-.126-.02-.244-.035-.353-.054v-.051c0-.507 1.847-1.946 6.349-3.534-.13.064-.246.129-.34.191-.678.454-.821.652-.821.652s-1.613.736-2.278 1.06c-.666.326-1.09.852-1.062.95.028.1-.015.142.934-.397.712-.403 4.132-2.261 6.584-3.589 3.344-1.735 7.607-2.922 14.955-2.989 6.438-.057 9.634.323 9.634.323s.399.257 1.471.342c.788.063 1.713.101 2.638.126zm-18.231 1.621c4.922.025 8.252 3.402 9.116 7.659-.864-4.262-4.142-8.13-9.062-8.156-5.385-.028-8.274 3.456-8.519 7.588.243-4.103 3.082-7.121 8.465-7.091zm41.671-3.169l1.608.025-.933-.712c-.188.208-.388.414-.6.617l-.075.07zm17.173 3.034c5.933 0 8.692 2.608 9.091 5.835-.398-3.227-3.095-6.196-9.027-6.196-5.375 0-8.342 3.123-8.646 5.912.302-2.766 3.209-5.551 8.582-5.551zm-13.116-7.527l.154-.53s-6.135-.499-9.017-.464l.389.017c3.535.176 7.513.718 7.513.718l.865.112-.035.12c-.2-.024-.66-.077-1.662-.184-1.225-.153-4.027-.478-6.688-.609-2.954-.148-4.679 0-4.679 0s-2.176 1.501-4.082 3.036c-1.685 1.358-4.695 3.931-4.695 3.931s11.061-.083 11.959-.083c3.567 0 4.466-.401 5.891-1.754 1.765-1.678 2.629-3.68 2.856-4.268l.152.02c.117.014.246.029.386.043l-.086.279-.327-.251c-.071.179-.168.408-.286.663l.48.008-.126.394-.401-.306a10.1 10.1 0 0 1-.267.527l-.035.064.605.01-.158.468-.502-.382c-.113.203-.242.418-.385.64l.791.013c-.069.195-.14.387-.21.574l-.642-.491c-.142.216-.295.438-.462.661l1.032.017c-.098.248-.192.486-.287.706l-.817-.625c-.162.211-.335.425-.521.636l1.322.021a7.611 7.611 0 0 1-.35.71c-.235.417-.46.745-.719 1.001l-.189-.144c0-.167-.122-.291-.277-.291a.322.322 0 0 0-.087.013l-.565-.431c-.896.822-1.634 1.267-3.003 1.477l.052-.001c1.729-.019 2.836-.059 3.584-.16.114-.065.228-.138.34-.22.389-.285.685-.682 1.001-1.244.549-.971 1.2-2.934 1.625-4.321l.375.038c-.348 1.153-1.043 3.442-1.373 4.387l-.508.003a4.92 4.92 0 0 1-.964 1.212c-.324.301-.686.347-1.007.463a11.9 11.9 0 0 0 1.063-.103c.225-.028.47-.061.73-.095-.067.126-.118.217-.137.252-1.673.165-2.725.106-2.725.106s-15.016.418-20.345.128a572.41 572.41 0 0 1-2.868-.165 2.346 2.346 0 0 1 1.195-.291 2.708 2.708 0 0 0-.094-.01c2.245.052 4.388.017 4.388.017s2.168-1.813 4.48-3.583c2.312-1.77 4.331-3.169 4.331-3.169s.203-.149.168-.233c-.026-.068-.459-.286-1.631-.38 1.186-.306 3.84-.709 8.962-.303 3.065.244 5.147.461 6.543.632.146.114.28.239.381.378a.56.56 0 0 1 .043.071l.136.023c-.067-.145-.229-.309-.399-.451 1.93.241 2.456.39 2.456.39l.129.13c.726.042 2.24.138 2.815.226.188.028.538.116.981.68.693.053 1.445.119 1.808.174.177.028.497.107.902.585.727.056 1.543.126 1.925.184.173.026.482.103.876.553.703.054 1.476.121 1.841.177.181.028.506.107.919.603l.027.007c.664.053 1.366.114 1.711.167.172.026.478.102.867.543.712.054 1.501.122 1.875.179.185.029.525.113.959.652 4.367 1.229 7.16 1.869 10.994 2.765.73.171 1.317-.261 1.426.028.043.107.005.83-.2 1.859.167.005.279.143.254.311l-.245 1.581a.378.378 0 0 1-.36.311h-.251c-.369 1.055-.893 2.187-1.618 3.227a9.415 9.415 0 0 1-2.311 2.298h2.773c.171 0 .257.14.189.31l-.229.588a.51.51 0 0 1-.433.31h-4.71c-.724.243-1.494.4-2.304.458-.793.057-.649-.142-.649-.142l-.395-4.444c-.398-3.227-3.158-5.837-9.091-5.837-5.556 0-8.475 2.979-8.605 5.836l-.064 2.167-1.313.016c-.758-3.286-1.364-6.774-1.405-9.46.642-.083.461-.037.84-.124.555-.129 5.203-.518 10.436-.647 5.232-.128 13.897 1.307 15.258 1.371s-.114-.467-3.071-1.216c-2.954-.749-4.753-.965-10.801-1.279-4.873-.253-9.45.405-12.654 1.009l.005-.222a64.63 64.63 0 0 0 2.995-.651c1.553-.379-1.646-.254-2.755-.221l-.213.005c.08-2.282.215-4.788.215-4.788l-.169-.02s-.125 2.522-.202 4.812c-.756.016-1.996.028-3.006.038.356-1.043 1.077-3.47 1.397-4.546zm-3.678 5.284a.17.17 0 0 1 .17-.172.17.17 0 0 1 .171.172c0 .094-.074.17-.171.17a.17.17 0 0 1-.17-.17zm-1.331.12h1.25c.041.083.12.142.216.154H61.29c-.104 0-.104-.154 0-.154zm.792-1.491l-.129.125c-1.329 1.263-2.12 1.653-5.632 1.653-.73 0-8.172.054-10.937.075.269-.229.591-.502.943-.797 1.352-.136 3.987-.351 8.226-.431 4.874-.092 6.818-.436 7.529-.625zm-4.282-4.36c2.766.136 5.69.483 6.809.626a12.256 12.256 0 0 1-1.7 2.82c-.938-.058-4.232-.248-7.789-.347-3.742-.105-5.959.486-7.084.885.451-.375.885-.732 1.255-1.031 1.677-1.35 3.565-2.674 3.979-2.963.399-.027 2.012-.116 4.53.01zm-18.069 6.041c1.624.027 3.089.012 3.567.006.28-.234 1-.828 1.932-1.577-2.379.026-4.437.655-5.499 1.571zm-2.606-.083c.247.014.504.025.763.035 2.796-1.362 7.583-3.674 9.852-4.572.843-.333 2.186-.969 3.717-1.73a8.354 8.354 0 0 0-.556-.07c-.843.337-1.646.657-2.342.933l-3.666 1.58c-2.614 1.223-5.873 2.865-7.768 3.824zm14.65-6.301c-.642.452-2.259 1.603-4.052 2.975a147.264 147.264 0 0 0-4.391 3.508c-.777.012-4.829.061-7.327-.136a7.166 7.166 0 0 1-.972-.129l14.849-6.399c.902.014 1.5.093 1.872.176l.021.005z"></path></g><!----></svg>